<svg width="548" height="259" viewBox="0 0 548 259" fill="none" xmlns="http://www.w3.org/2000/svg">
<g clip-path="url(#clip0_610_15852)">
<path d="M543.62 141.96H508.82L508.69 190.64C508.69 214.05 528.66 218.81 543.81 219.44C545.8 219.52 547.35 221.18 547.35 223.17V254.7C547.35 256.82 545.61 258.49 543.49 258.44C517.26 257.81 495.42 250.72 482.4 237.34C464.17 218.61 464.59 197.21 464.73 195.33L465.12 60.77C465.12 58.71 466.8 57.05 468.85 57.05H505.38C507.45 57.05 509.13 58.74 509.11 60.81L508.8 105.05H543.6C545.66 105.05 547.33 106.72 547.33 108.79V138.23C547.33 140.29 545.66 141.96 543.6 141.96" fill="#0A4EE4"/>
<path d="M223.66 248.88L223.76 37.2C223.76 35.14 222.09 33.46 220.03 33.46H183.43C181.37 33.46 179.7 35.13 179.7 37.19V248.87C179.7 250.93 181.37 252.6 183.43 252.6H219.93C221.99 252.6 223.66 250.93 223.66 248.87" fill="#0A4EE4"/>
<path d="M419.09 166.17C407.89 161.96 393.03 158.78 379.89 156.63C373.39 155.48 368.19 153.81 364.45 151.65C358.04 148.38 357.95 138.25 364.27 134.57C371.45 129.7 388.97 130.15 396.38 135.62C399.22 137.3 401.49 140.38 403.12 144.06C403.67 145.3 405.04 145.94 406.33 145.55L439.3 135.51C441.5 134.84 442.55 132.37 441.56 130.29C437.41 121.5 430.95 114.03 422.13 108.13C400.6 92.6 356.19 92.82 335.58 108.93C317.12 120.84 312.52 153.44 326.79 170.25C338.86 184.65 358.33 189.81 377.2 193.79C377.26 193.8 377.32 193.81 377.39 193.83C385.6 195.11 399.63 197.87 404.06 201.15C411.07 205.33 410.34 215.03 403.61 219.54C399.84 222.33 393.74 223.74 385.49 223.74C369.54 223.72 358.88 217.92 354.07 204.51C353.62 203.25 352.19 202.49 350.9 202.82L317.68 211.42C315.63 211.95 314.41 214.09 315.03 216.12C318.76 228.22 325.98 238.25 336.55 245.31C372.07 269.16 451.28 263.04 450.12 207.15C450.12 196.25 447.26 187.42 441.61 180.92C436.08 174.56 428.5 169.6 419.08 166.18" fill="#0A4EE4"/>
<path d="M250.06 102.86V248.88C250.06 250.94 251.73 252.61 253.79 252.61H290.93C292.99 252.61 294.66 250.94 294.66 248.88V102.86C294.66 100.8 292.99 99.13 290.93 99.13H253.79C251.73 99.13 250.06 100.8 250.06 102.86Z" fill="#0A4EE4"/>
<path d="M272.36 48.59C258.94 48.59 248.07 37.71 248.07 24.3V49.95C248.07 63.37 258.95 74.24 272.36 74.24C285.77 74.24 296.65 63.36 296.65 49.95V24.3C296.65 37.72 285.77 48.59 272.36 48.59Z" fill="#E64E36"/>
<path d="M272.36 48.59C285.78 48.59 296.65 37.71 296.65 24.3C296.65 10.89 285.78 0 272.36 0C258.94 0 248.07 10.88 248.07 24.29C248.07 37.71 258.95 48.58 272.36 48.58" fill="#0A4EE4"/>
<path d="M81.07 217.29C57.97 217.29 41.2 200.41 41.2 177.14C41.2 154.38 57.97 137.86 81.07 137.86C104.17 137.86 120.63 154.38 120.63 177.14C120.63 199.9 103.99 217.29 81.07 217.29ZM80.91 96.66C36.23 96.66 0 132.89 0 177.57C0 222.25 36.23 258.48 80.91 258.48C125.59 258.48 161.82 222.25 161.82 177.57C161.82 132.89 125.59 96.65 80.91 96.65" fill="#0A4EE4"/>
</g>
<defs>
<clipPath id="clip0_610_15852">
<rect width="547.35" height="258.49" fill="white"/>
</clipPath>
</defs>
</svg>
